<svg id="Calque_1" data-name="Calque 1" xmlns="http://www.w3.org/2000/svg" viewBox="0 0 1303.89 356.98"><defs><style>.cls-1{fill:#163d85;}</style></defs><path class="cls-1" d="M123.9,201V121.42H43.5V201H-.1V2.8H43.5V81.22h80.4V2.8h43.6V201Z"/><path class="cls-1" d="M352.11,201,334,156.53h-83.8L232.07,201H187.63L272.56,1.39h40.2L397.69,201Zm-60-147.22L265.76,118h52.66Z"/><path class="cls-1" d="M538.14,201l-42.47-63.42H461.42V201h-43.6V2.8h90.59c46.71,0,74.74,24.63,74.74,65.4v.57c0,32-17.27,52.09-42.46,61.43L589.1,201ZM539,70.46c0-18.68-13-28.3-34.26-28.3H461.42v56.9h44.16c21.23,0,33.41-11.33,33.41-28Z"/><path class="cls-1" d="M708,202.4H669.51L589.39,2.8h48.13l51.81,139.57L741.14,2.8h47Z"/><path class="cls-1" d="M808.26,201V2.8H957.74V41.59H851.58V81.78H945v38.8H851.58v41.61H959.16V201Z"/><path class="cls-1" d="M1058,203.81A126.07,126.07,0,0,1,973.9,172.1l25.76-30.86c17.84,14.72,36.52,24.07,59.17,24.07,17.84,0,28.59-7.08,28.59-18.69v-.57c0-11-6.79-16.7-39.92-25.19-39.91-10.19-65.67-21.23-65.67-60.58v-.57c0-36,28.87-59.74,69.36-59.74,28.87,0,53.51,9.06,73.6,25.2L1102.15,58c-17.56-12.17-34.83-19.53-51.53-19.53s-25.48,7.64-25.48,17.27v.57c0,13,8.5,17.27,42.75,26,40.2,10.48,62.85,24.92,62.85,59.46v.56C1130.74,181.72,1100.73,203.81,1058,203.81Z"/><path class="cls-1" d="M1243.68,43V201h-43.6V43h-60.3V2.8H1304V43Z"/><polygon class="cls-1" points="9.76 283.24 1269.37 298.47 9.76 313.7 9.76 283.24"/><path class="cls-1" d="M913.65,354a36.77,36.77,0,0,1-12.17-8.34,37.67,37.67,0,0,1-8.06-12.92,46.61,46.61,0,0,1-2.9-16.76,62.26,62.26,0,0,1,4.5-23.88,61.28,61.28,0,0,1,12.08-19,57,57,0,0,1,17.32-12.64,47.33,47.33,0,0,1,20.42-4.59,41.38,41.38,0,0,1,13.29,2,38.1,38.1,0,0,1,10.3,5.24,32.91,32.91,0,0,1,7.59,7.68,53.13,53.13,0,0,1,5.15,9.08L997.65,218h14.42L975.55,354.76H961.13l4.31-16.48a68.75,68.75,0,0,1-15.83,13.29A38.93,38.93,0,0,1,928.92,357,38.45,38.45,0,0,1,913.65,354Zm35.21-13.58a48.91,48.91,0,0,0,13.77-10.11,52,52,0,0,0,9.74-14.52,41.25,41.25,0,0,0,3.74-17.23,31.9,31.9,0,0,0-2.15-11.8A28.1,28.1,0,0,0,958.41,271a31.12,31.12,0,0,0-12.26-2.34,35,35,0,0,0-16,3.74,41.86,41.86,0,0,0-12.83,10,46.93,46.93,0,0,0-8.52,14.7,50.76,50.76,0,0,0-3.09,17.61,35.59,35.59,0,0,0,2,12.17,27.09,27.09,0,0,0,5.62,9.37,24.13,24.13,0,0,0,8.71,6,28.87,28.87,0,0,0,11,2.06A35.37,35.37,0,0,0,948.86,340.43Z"/><path class="cls-1" d="M1027.15,355a30.25,30.25,0,0,1-9.74-5.15,24.51,24.51,0,0,1-9.27-19.85,33,33,0,0,1,3.18-14.61,30.86,30.86,0,0,1,9-11.05,42.63,42.63,0,0,1,13.67-6.93,58.19,58.19,0,0,1,17.23-2.44,104.24,104.24,0,0,1,18.55,1.6,161.37,161.37,0,0,1,15.92,3.65l.56-2.25a41.64,41.64,0,0,0,.93-4.49,29.79,29.79,0,0,0,.38-4.5q0-9.56-6.46-14.61t-19.76-5.05a67.35,67.35,0,0,0-14.33,1.4,116.61,116.61,0,0,0-13,3.65l-2.43-12a102.84,102.84,0,0,1,14.79-4.22,85.38,85.38,0,0,1,17.24-1.59q18.35,0,28.18,8t9.84,22a39.29,39.29,0,0,1-.57,6.55,62.14,62.14,0,0,1-1.5,6.74l-14.6,54.88h-14l4.12-15.17a52.94,52.94,0,0,1-15.64,12.55,43.41,43.41,0,0,1-20.51,4.68A38.09,38.09,0,0,1,1027.15,355Zm28.37-11.61a44.47,44.47,0,0,0,11.15-5.9,41.86,41.86,0,0,0,9.08-9.09,34.42,34.42,0,0,0,5.62-11.7l1.87-6.74a108.53,108.53,0,0,0-14.42-3.09,114.25,114.25,0,0,0-17-1.22,39.19,39.19,0,0,0-11.9,1.69,27.73,27.73,0,0,0-9.08,4.68,22.2,22.2,0,0,0-5.9,7.11,19.48,19.48,0,0,0-2.15,9.18,15.62,15.62,0,0,0,5.52,12.55q5.52,4.68,15.08,4.68A35.85,35.85,0,0,0,1055.52,343.43Z"/><path class="cls-1" d="M1133.24,351.67q-6.56-4.79-6.55-14.33a36.93,36.93,0,0,1,.37-5.24c.25-1.75.57-3.37.94-4.87l15.17-56.56h-13.3l3.37-12.74h13.49l7.86-29.22h14.24L1161,257.93h30.53l-3.37,12.74h-30.53l-15,55.66a29.17,29.17,0,0,0-.56,3.65c-.13,1.31-.19,2.46-.19,3.45,0,3.37,1.18,5.86,3.56,7.48s5.62,2.42,9.74,2.42a41,41,0,0,0,14-2.81l-3.56,13.11a37.34,37.34,0,0,1-7.39,2.16,45.89,45.89,0,0,1-8,.65Q1139.79,356.44,1133.24,351.67Z"/><path class="cls-1" d="M1210.12,355a30.35,30.35,0,0,1-9.74-5.15,25.34,25.34,0,0,1-6.74-8.34,25.05,25.05,0,0,1-2.53-11.51,32.9,32.9,0,0,1,3.19-14.61,30.86,30.86,0,0,1,9-11.05,42.52,42.52,0,0,1,13.67-6.93,58.09,58.09,0,0,1,17.23-2.44,104.21,104.21,0,0,1,18.54,1.6,160.71,160.71,0,0,1,15.92,3.65l.56-2.25a39.29,39.29,0,0,0,.94-4.49,29.7,29.7,0,0,0,.37-4.5q0-9.56-6.46-14.61t-19.76-5.05a67.26,67.26,0,0,0-14.32,1.4,116.61,116.61,0,0,0-13,3.65l-2.44-12a103.34,103.34,0,0,1,14.8-4.22,85.28,85.28,0,0,1,17.23-1.59q18.36,0,28.19,8t9.83,22a40.34,40.34,0,0,1-.56,6.55,67.26,67.26,0,0,1-1.5,6.74l-14.61,54.88h-14.05l4.13-15.17a53.07,53.07,0,0,1-15.64,12.55,43.44,43.44,0,0,1-20.51,4.68A38.16,38.16,0,0,1,1210.12,355Zm28.38-11.61a44.41,44.41,0,0,0,11.14-5.9,41.86,41.86,0,0,0,9.08-9.09,34.06,34.06,0,0,0,5.62-11.7l1.88-6.74a109,109,0,0,0-14.43-3.09,114.25,114.25,0,0,0-17-1.22,39.17,39.17,0,0,0-11.89,1.69,27.68,27.68,0,0,0-9.09,4.68,22.29,22.29,0,0,0-5.89,7.11,19.48,19.48,0,0,0-2.16,9.18,15.6,15.6,0,0,0,5.53,12.55q5.52,4.68,15.07,4.68A36,36,0,0,0,1238.5,343.43Z"/></svg>