<svg id="Calque_1" data-name="Calque 1" xmlns="http://www.w3.org/2000/svg" viewBox="0 0 1303.89 356.98"><defs><style>.cls-1{fill:#fff;}</style></defs><path class="cls-1" d="M124,201V121.43H43.57V201H0V2.83H43.57V81.24H124V2.83h43.59V201Z"/><path class="cls-1" d="M352.15,201,334,156.53H250.24L232.12,201H187.68L272.6,1.41h40.2L397.72,201Zm-60-147.19L265.81,118h52.65Z"/><path class="cls-1" d="M538.15,201l-42.46-63.4H461.44V201H417.85V2.83h90.58c46.71,0,74.73,24.62,74.73,65.38v.57c0,32-17.27,52.09-42.46,61.42L589.11,201ZM539,70.47c0-18.68-13-28.3-34.25-28.3H461.44v56.9H505.6c21.23,0,33.4-11.33,33.4-28Z"/><path class="cls-1" d="M708,202.39h-38.5L589.4,2.83h48.12l51.81,139.54L741.13,2.83h47Z"/><path class="cls-1" d="M808.24,201V2.83H957.71V41.6H851.55V81.8H945v38.78H851.55v41.61H959.12V201Z"/><path class="cls-1" d="M1057.94,203.8a126.1,126.1,0,0,1-84.08-31.7l25.76-30.85c17.83,14.72,36.52,24.06,59.16,24.06,17.84,0,28.59-7.08,28.59-18.69v-.56c0-11-6.79-16.7-39.91-25.19-39.91-10.2-65.67-21.23-65.67-60.58v-.57c0-35.95,28.87-59.73,69.35-59.73,28.87,0,53.5,9.06,73.6,25.19L1102.09,58c-17.55-12.17-34.82-19.53-51.52-19.53s-25.47,7.64-25.47,17.27v.56c0,13,8.49,17.27,42.74,26,40.2,10.48,62.84,24.92,62.84,59.45v.56C1130.68,181.72,1100.68,203.8,1057.94,203.8Z"/><path class="cls-1" d="M1243.61,43V201H1200V43h-60.3V2.83h164.19V43Z"/><polygon class="cls-1" points="9.83 283.23 1269.3 298.46 9.83 313.68 9.83 283.23"/><path class="cls-1" d="M913.62,354a36.89,36.89,0,0,1-12.17-8.33,37.64,37.64,0,0,1-8.05-12.93A46.4,46.4,0,0,1,890.49,316,62.21,62.21,0,0,1,895,292.1a61.17,61.17,0,0,1,12.08-19,57,57,0,0,1,17.32-12.64,47.32,47.32,0,0,1,20.41-4.59,41.44,41.44,0,0,1,13.3,2,38.25,38.25,0,0,1,10.3,5.24,33.06,33.06,0,0,1,7.58,7.68,52.47,52.47,0,0,1,5.15,9.08L997.61,218H1012L975.51,354.74H961.09l4.31-16.48a68.91,68.91,0,0,1-15.82,13.29,41.34,41.34,0,0,1-36,2.44Zm35.21-13.58a48.87,48.87,0,0,0,13.76-10.11,51.9,51.9,0,0,0,9.74-14.51,41.16,41.16,0,0,0,3.74-17.23,31.86,31.86,0,0,0-2.15-11.8,28.46,28.46,0,0,0-6.08-9.46,28.86,28.86,0,0,0-9.46-6.36,31.17,31.17,0,0,0-12.27-2.34,34.89,34.89,0,0,0-16,3.74,41.86,41.86,0,0,0-12.83,10,46.82,46.82,0,0,0-8.52,14.7,50.75,50.75,0,0,0-3.09,17.6,35.61,35.61,0,0,0,2,12.18,27.05,27.05,0,0,0,5.62,9.36,24,24,0,0,0,8.71,6,28.85,28.85,0,0,0,11,2.06A35.38,35.38,0,0,0,948.83,340.41Z"/><path class="cls-1" d="M1027.1,355a30.3,30.3,0,0,1-9.73-5.15A24.4,24.4,0,0,1,1008.1,330a33,33,0,0,1,3.18-14.61,30.86,30.86,0,0,1,9-11.05,43,43,0,0,1,13.67-6.93,58.1,58.1,0,0,1,17.23-2.43,104.23,104.23,0,0,1,18.54,1.59,160.48,160.48,0,0,1,15.91,3.65l.57-2.24a41.84,41.84,0,0,0,.93-4.5,29.66,29.66,0,0,0,.38-4.49q0-9.56-6.46-14.61t-19.76-5.06a67.39,67.39,0,0,0-14.33,1.41,114.94,114.94,0,0,0-13,3.65l-2.43-12a102.84,102.84,0,0,1,14.79-4.22,85.28,85.28,0,0,1,17.23-1.59q18.35,0,28.18,8t9.83,22a40.36,40.36,0,0,1-.56,6.56,63.21,63.21,0,0,1-1.5,6.74l-14.6,54.87h-14.05l4.12-15.17a52.94,52.94,0,0,1-15.64,12.55,43.37,43.37,0,0,1-20.5,4.68A38.16,38.16,0,0,1,1027.1,355Zm28.37-11.61a44.47,44.47,0,0,0,11.15-5.9,42,42,0,0,0,9.08-9.08,34.56,34.56,0,0,0,5.62-11.71l1.87-6.74a108.87,108.87,0,0,0-14.42-3.09,114.25,114.25,0,0,0-17-1.22,39.48,39.48,0,0,0-11.89,1.69,27.72,27.72,0,0,0-9.08,4.68,22.13,22.13,0,0,0-5.9,7.12,19.42,19.42,0,0,0-2.16,9.17,15.59,15.59,0,0,0,5.53,12.55q5.52,4.68,15.07,4.68A35.85,35.85,0,0,0,1055.47,343.41Z"/><path class="cls-1" d="M1133.19,351.65q-6.56-4.78-6.56-14.33a37.05,37.05,0,0,1,.38-5.24c.25-1.75.56-3.37.93-4.87l15.17-56.55h-13.29l3.37-12.74h13.48l7.87-29.21h14.23l-7.87,29.21h30.53l-3.37,12.74h-30.53l-15,55.66A28.72,28.72,0,0,0,1142,330c-.13,1.31-.19,2.46-.19,3.46q0,5,3.56,7.47t9.74,2.42a41.26,41.26,0,0,0,14-2.8l-3.56,13.1a38,38,0,0,1-7.39,2.16,45.89,45.89,0,0,1-8,.65Q1139.74,356.42,1133.19,351.65Z"/><path class="cls-1" d="M1210.06,355a30.25,30.25,0,0,1-9.74-5.15,24.47,24.47,0,0,1-9.27-19.85,33,33,0,0,1,3.18-14.61,30.86,30.86,0,0,1,9-11.05,43,43,0,0,1,13.67-6.93,58.19,58.19,0,0,1,17.23-2.43,104.23,104.23,0,0,1,18.54,1.59,160.71,160.71,0,0,1,15.92,3.65l.56-2.24a44.33,44.33,0,0,0,.94-4.5,29.58,29.58,0,0,0,.37-4.49q0-9.56-6.46-14.61t-19.76-5.06a67.23,67.23,0,0,0-14.32,1.41,114.51,114.51,0,0,0-13,3.65l-2.43-12a102.84,102.84,0,0,1,14.79-4.22,85.28,85.28,0,0,1,17.23-1.59q18.35,0,28.18,8t9.84,22a39.31,39.31,0,0,1-.57,6.56,65.69,65.69,0,0,1-1.49,6.74l-14.61,54.87h-14l4.12-15.17a52.9,52.9,0,0,1-15.63,12.55,43.41,43.41,0,0,1-20.51,4.68A38.09,38.09,0,0,1,1210.06,355Zm28.37-11.61a44.41,44.41,0,0,0,11.14-5.9,42,42,0,0,0,9.08-9.08,34.37,34.37,0,0,0,5.62-11.71l1.87-6.74a108.53,108.53,0,0,0-14.42-3.09,114,114,0,0,0-17-1.22,39.48,39.48,0,0,0-11.89,1.69,27.82,27.82,0,0,0-9.08,4.68,22.13,22.13,0,0,0-5.9,7.12,19.41,19.41,0,0,0-2.15,9.17,15.61,15.61,0,0,0,5.52,12.55q5.52,4.68,15.08,4.68A35.89,35.89,0,0,0,1238.43,343.41Z"/></svg>